<?xml version="1.0" encoding="UTF-8"?>
<svg width="32" height="32" viewBox="0 0 32 32" fill="none" xmlns="http://www.w3.org/2000/svg">
  <!-- 对话气泡组合 -->
  <path d="M6 10C6 8.89543 6.89543 8 8 8H18C19.1046 8 20 8.89543 20 10V14C20 15.1046 19.1046 16 18 16H14L10 20V16H8C6.89543 16 6 15.1046 6 14V10Z" 
        stroke="currentColor" 
        stroke-width="1.5" 
        stroke-linecap="round" 
        stroke-linejoin="round"/>
  
  <path d="M12 16C12 14.8954 12.8954 14 14 14H24C25.1046 14 26 14.8954 26 16V20C26 21.1046 25.1046 22 24 22H20L16 26V22H14C12.8954 22 12 21.1046 12 20V16Z" 
        stroke="currentColor" 
        stroke-width="1.5" 
        stroke-linecap="round" 
        stroke-linejoin="round"/>

  <!-- AI 电路图案 -->
  <path d="M10 12H16M13 10V14" 
        stroke="currentColor" 
        stroke-width="1.5" 
        stroke-linecap="round"/>
  
  <path d="M16 18H22M19 16V20" 
        stroke="currentColor" 
        stroke-width="1.5" 
        stroke-linecap="round"/>
</svg> 